<?xml version="1.0"?><svg version="1.1" id="Layer_1" xmlns="http://www.w3.org/2000/svg" x="0" y="0" viewBox="0 0 100 100" xml:space="preserve"><path d="M50 7.5c3.6 2.7 5.9 7 5.9 11.8s-2.3 9.1-5.9 11.8c-3.6-2.7-5.9-7-5.9-11.8s2.3-9.1 5.9-11.8z" fill="#f47e5f"/><path d="M29.5 26.3c2.4 4.2 6.6 6.7 11 7.3 1.8-4.1 1.6-9-.8-13.2s-6.6-6.7-11-7.3c-1.7 4.2-1.6 9.1.8 13.2z" fill="#e15c64"/><path d="M20.5 39.7c4.2 2.4 9 2.5 13.2.8-.5-4.4-3.1-8.6-7.3-11s-9-2.5-13.2-.8c.5 4.5 3.1 8.6 7.3 11z" fill="#f7b26a"/><path d="M19.3 55.9c4.8 0 9.1-2.3 11.8-5.9-2.7-3.6-7-5.9-11.8-5.9S10.2 46.4 7.5 50c2.7 3.6 7 5.9 11.8 5.9z" fill="#f47e5f"/><path d="M26.3 70.5c4.2-2.4 6.7-6.6 7.3-11-4.1-1.8-9-1.6-13.2.8s-6.7 6.6-7.3 11c4.2 1.7 9.1 1.6 13.2-.8z" fill="#e15c64"/><path d="M39.7 79.5c2.4-4.2 2.5-9 .8-13.2-4.4.5-8.6 3.1-11 7.3s-2.5 9-.8 13.2c4.5-.5 8.6-3.1 11-7.3z" fill="#f7b26a"/><path d="M55.9 80.7c0-4.8-2.3-9.1-5.9-11.8-3.6 2.7-5.9 7-5.9 11.8s2.3 9.1 5.9 11.8c3.6-2.7 5.9-7 5.9-11.8z" fill="#f47e5f"/><path d="M70.5 73.7c-2.4-4.2-6.6-6.7-11-7.3-1.8 4.1-1.6 9 .8 13.2s6.6 6.7 11 7.3c1.7-4.2 1.6-9.1-.8-13.2z" fill="#e15c64"/><path d="M79.5 60.3c-4.2-2.4-9-2.5-13.2-.8.5 4.4 3.1 8.6 7.3 11s9 2.5 13.2.8c-.5-4.5-3.1-8.6-7.3-11z" fill="#f7b26a"/><path d="M80.7 44.1c-4.8 0-9.1 2.3-11.8 5.9 2.7 3.6 7 5.9 11.8 5.9s9.1-2.3 11.8-5.9c-2.7-3.6-7-5.9-11.8-5.9z" fill="#f47e5f"/><path d="M73.7 29.5c-4.2 2.4-6.7 6.6-7.3 11 4.1 1.8 9 1.6 13.2-.8s6.7-6.6 7.3-11c-4.2-1.7-9.1-1.6-13.2.8z" fill="#e15c64"/><path d="M60.3 20.5c-2.4 4.2-2.5 9-.8 13.2 4.4-.5 8.6-3.1 11-7.3s2.5-9 .8-13.2c-4.5.5-8.6 3.1-11 7.3z" fill="#f7b26a"/><metadata xmlns:d="https://loading.io/stock/">
<d:name>leaf</d:name>
<d:tags>flower,plant,loader,spinner,preloader,loading icon,leaf</d:tags>
<d:license>by</d:license>
<d:slug>yoznrn</d:slug>
</metadata></svg>